<?xml version="1.0" encoding="iso-8859-1"?>
<!-- Generator: Adobe Illustrator 19.0.0, SVG Export Plug-In . SVG Version: 6.00 Build 0)  -->
<svg version="1.1" id="Layer_1" xmlns="http://www.w3.org/2000/svg" xmlns:xlink="http://www.w3.org/1999/xlink" x="0px" y="0px"
	 viewBox="0 0 512 512" style="enable-background:new 0 0 512 512;" xml:space="preserve">
<circle style="fill:#FFAD9E;" cx="256" cy="256" r="256"/>
<path style="fill:#FF6262;" d="M512,256c0-10.23-0.619-20.313-1.786-30.23L398.222,113.778l-62.567,77.5l-90.429-90.429
	l-81.167,24.135v15.174l-39.507,8.961l39.507,39.507v47.049H346.29l5.935,5.935L113.778,398.222L225.77,510.214
	C235.685,511.381,245.77,512,256,512C397.384,512,512,397.384,512,256z"/>
<g>
	<rect x="138.774" y="130.155" style="fill:#386895;" width="6.896" height="37.926"/>
	<rect x="224.108" y="130.155" style="fill:#386895;" width="6.896" height="37.926"/>
	<rect x="113.778" y="161.185" style="fill:#386895;" width="199.111" height="237.037"/>
</g>
<rect x="256" y="113.778" style="fill:#273B7A;" width="142.222" height="284.444"/>
<g>
	<rect x="284.444" y="142.222" style="fill:#02B2B2;" width="28.444" height="28.444"/>
	<rect x="341.333" y="142.222" style="fill:#02B2B2;" width="28.444" height="28.444"/>
	<rect x="284.444" y="199.111" style="fill:#02B2B2;" width="28.444" height="28.444"/>
	<rect x="341.333" y="199.111" style="fill:#02B2B2;" width="28.444" height="28.444"/>
	<rect x="284.444" y="256" style="fill:#02B2B2;" width="28.444" height="28.444"/>
	<rect x="341.333" y="256" style="fill:#02B2B2;" width="28.444" height="28.444"/>
	<rect x="142.222" y="199.111" style="fill:#02B2B2;" width="28.444" height="28.444"/>
	<rect x="199.111" y="199.111" style="fill:#02B2B2;" width="28.444" height="28.444"/>
	<rect x="142.222" y="256" style="fill:#02B2B2;" width="28.444" height="28.444"/>
	<rect x="199.111" y="256" style="fill:#02B2B2;" width="28.444" height="28.444"/>
	<rect x="142.222" y="312.889" style="fill:#02B2B2;" width="28.444" height="28.444"/>
	<rect x="199.111" y="312.889" style="fill:#02B2B2;" width="28.444" height="28.444"/>
	<rect x="298.667" y="312.889" style="fill:#02B2B2;" width="56.889" height="85.333"/>
	<rect x="124.552" y="100.848" style="fill:#02B2B2;" width="120.673" height="48.269"/>
</g>
<g>
</g>
<g>
</g>
<g>
</g>
<g>
</g>
<g>
</g>
<g>
</g>
<g>
</g>
<g>
</g>
<g>
</g>
<g>
</g>
<g>
</g>
<g>
</g>
<g>
</g>
<g>
</g>
<g>
</g>
</svg>
